<?xml version="1.0" encoding="UTF-8"?>
<svg width="145px" height="13px" viewBox="0 0 145 13" version="1.1" xmlns="http://www.w3.org/2000/svg" xmlns:xlink="http://www.w3.org/1999/xlink">
    <title>SEDENTAL</title>
    <g id="🖥-Web" stroke="none" stroke-width="1" fill="none" fill-rule="evenodd">
        <g id="Price-List_web_final4" transform="translate(-723.000000, -77.000000)" fill="#FFFFFF" fill-rule="nonzero">
            <path d="M728.12,89.24 C728.722667,89.24 729.278667,89.164 729.788,89.012 C730.297333,88.86 730.742667,88.64 731.124,88.352 C731.505333,88.064 731.801333,87.7093333 732.012,87.288 C732.222667,86.8666667 732.328,86.3893333 732.328,85.856 C732.328,85.3066667 732.229333,84.8533333 732.032,84.496 C731.834667,84.1386667 731.585333,83.8493333 731.284,83.628 C730.982667,83.4066667 730.673333,83.236 730.356,83.116 C730.038667,82.996 729.762667,82.904 729.528,82.84 L729.528,82.84 L727.272,82.176 C726.973333,82.0906667 726.665333,81.9813333 726.348,81.848 C726.030667,81.7146667 725.764,81.5306667 725.548,81.296 C725.332,81.0613333 725.224,80.7493333 725.224,80.36 C725.224,79.976 725.341333,79.6346667 725.576,79.336 C725.810667,79.0373333 726.129333,78.8013333 726.532,78.628 C726.934667,78.4546667 727.394667,78.368 727.912,78.368 C728.445333,78.3733333 728.934667,78.476 729.38,78.676 C729.825333,78.876 730.192,79.16 730.48,79.528 C730.768,79.896 730.952,80.3306667 731.032,80.832 L731.032,80.832 L732.264,80.608 C732.136,79.92 731.874667,79.324 731.48,78.82 C731.085333,78.316 730.585333,77.928 729.98,77.656 C729.374667,77.384 728.688,77.248 727.92,77.248 C727.162667,77.2426667 726.488,77.368 725.896,77.624 C725.304,77.88 724.837333,78.2453333 724.496,78.72 C724.154667,79.1946667 723.984,79.7573333 723.984,80.408 C723.984,80.792 724.045333,81.1333333 724.168,81.432 C724.290667,81.7306667 724.462667,81.9906667 724.684,82.212 C724.905333,82.4333333 725.165333,82.6226667 725.464,82.78 C725.762667,82.9373333 726.088,83.0666667 726.44,83.168 L726.44,83.168 L729.36,84.04 C729.557333,84.0986667 729.76,84.1746667 729.968,84.268 C730.176,84.3613333 730.368,84.4773333 730.544,84.616 C730.72,84.7546667 730.861333,84.9293333 730.968,85.14 C731.074667,85.3506667 731.128,85.6053333 731.128,85.904 C731.128,86.3573333 731,86.7493333 730.744,87.08 C730.488,87.4106667 730.136,87.6653333 729.688,87.844 C729.24,88.0226667 728.733333,88.112 728.168,88.112 C727.309333,88.112 726.570667,87.9 725.952,87.476 C725.333333,87.052 724.928,86.4666667 724.736,85.72 L724.736,85.72 L723.536,85.92 C723.664,86.6026667 723.937333,87.192 724.356,87.688 C724.774667,88.184 725.305333,88.5666667 725.948,88.836 C726.590667,89.1053333 727.314667,89.24 728.12,89.24 Z M749.184,89 L749.184,87.872 L743.16,87.872 L743.16,83.72 L748.224,83.72 L748.224,82.592 L743.16,82.592 L743.16,78.608 L749.184,78.608 L749.184,77.48 L741.984,77.48 L741.984,89 L749.184,89 Z M773.864,88.9996667 C773.984,88.9985556 774.170667,88.9946667 774.424,88.988 C774.728,88.98 775.013333,88.96 775.28,88.928 C776.154667,88.8053333 776.885333,88.48 777.472,87.952 C778.058667,87.424 778.498667,86.752 778.792,85.936 C779.085333,85.12 779.232,84.2213333 779.232,83.24 C779.232,82.2586667 779.085333,81.36 778.792,80.544 C778.498667,79.728 778.058667,79.056 777.472,78.528 C776.885333,78 776.154667,77.6746667 775.28,77.552 C775.008,77.5146667 774.724,77.4933333 774.428,77.488 C774.132,77.4826667 773.922667,77.48 773.8,77.48 L773.8,77.48 L770.304,77.48 L770.304,89 L773.864,88.9996667 Z M773.8,87.872 L771.52,87.872 L771.52,78.608 L773.8,78.608 C774.008,78.608 774.241333,78.6146667 774.5,78.628 C774.758667,78.6413333 774.978667,78.6666667 775.16,78.704 C775.826667,78.8213333 776.368,79.0906667 776.784,79.512 C777.2,79.9333333 777.504,80.4666667 777.696,81.112 C777.888,81.7573333 777.984,82.4666667 777.984,83.24 C777.984,84.008 777.888,84.7133333 777.696,85.356 C777.504,85.9986667 777.201333,86.5333333 776.788,86.96 C776.374667,87.3866667 775.832,87.6586667 775.16,87.776 C774.978667,87.8133333 774.761333,87.8386667 774.508,87.852 C774.254667,87.8653333 774.018667,87.872 773.8,87.872 L773.8,87.872 Z M796.248,89 L796.248,87.872 L790.224,87.872 L790.224,83.72 L795.288,83.72 L795.288,82.592 L790.224,82.592 L790.224,78.608 L796.248,78.608 L796.248,77.48 L789.048,77.48 L789.048,89 L796.248,89 Z M807.352,89 L807.352,79.552 L813.696,89 L814.88,89 L814.88,77.48 L813.696,77.48 L813.696,86.92 L807.352,77.48 L806.168,77.48 L806.168,89 L807.352,89 Z M829.36,89 L829.36,78.608 L833.384,78.608 L833.384,77.48 L824.16,77.48 L824.16,78.608 L828.184,78.608 L828.184,89 L829.36,89 Z M842.768,89 L843.73,86.208 L848.848,86.208 L849.816,89 L851.04,89 L847.072,77.48 L845.512,77.48 L841.544,89 L842.768,89 Z M848.465,85.104 L844.111,85.104 L846.281,78.807 L848.465,85.104 Z M867.288,89 L867.288,87.872 L861.816,87.872 L861.816,77.48 L860.64,77.48 L860.64,89 L867.288,89 Z" id="SEDENTAL"></path>
        </g>
    </g>
</svg>